<svg width="492" height="123" viewBox="0 0 492 123" fill="none" xmlns="http://www.w3.org/2000/svg">
<path d="M144.102 91V19.2227H158.56V47.8311H162.559V61.9814H158.56V91H144.102ZM168.198 61.9814V47.8311H172.197V19.2227H186.655V91H172.197V61.9814H168.198ZM195.063 90.8975V19.2227H232.388V33.5781H209.521V48.1387H222.749V62.5967H209.521V90.8975H195.063ZM236.592 33.373V19.2227H280.991V33.373H266.021V91H251.562V33.373H236.592ZM310.42 91V19.2227H324.878V76.6445H348.975V91H310.42ZM353.076 77.4648V72.2354C353.145 67.8604 354.99 64.4766 358.613 62.084C359.502 61.6055 363.091 60.2725 369.38 58.085C376.694 55.624 380.352 53.4365 380.352 51.5225V49.1641C380.283 46.7031 378.779 45.3701 375.84 45.165V32.5527C380.967 32.5527 385.273 34.2959 388.76 37.7822C391.904 40.9951 393.477 44.4814 393.477 48.2412V75.0039C393.545 77.0547 394.502 78.1484 396.348 78.2852V91C392.178 91 388.828 89.9062 386.299 87.7188C383.633 89.8379 380.181 90.9316 375.942 91V78.3877C376.489 78.3877 377.002 78.3193 377.48 78.1826C379.395 77.6357 380.352 76.3369 380.352 74.2861V65.8779C378.506 66.9717 374.917 68.2705 369.585 69.7744C367.397 70.3213 366.133 70.6973 365.791 70.9023C364.971 71.3125 364.526 72.0986 364.458 73.2607V74.6963C364.458 75.1064 364.492 75.5166 364.561 75.9268C364.971 77.5674 366.919 78.3877 370.405 78.3877V91C365.825 91 361.929 89.8379 358.716 87.5137C354.956 84.7793 353.076 81.4297 353.076 77.4648ZM353.794 47.2158C353.862 43.7295 355.298 40.5508 358.101 37.6797C361.655 34.2617 365.791 32.5527 370.508 32.5527V45.165C367.363 45.2334 365.757 47.4209 365.688 51.7275L353.794 47.2158ZM403.218 91V17.582H417.368V91H403.218ZM422.803 91V77.6699H426.494C426.904 77.6699 427.28 77.6357 427.622 77.5674C428.032 77.4307 428.374 77.2939 428.647 77.1572C428.921 77.0205 429.16 76.8496 429.365 76.6445C429.57 76.4395 429.707 76.2344 429.775 76.0293C429.912 75.8242 430.015 75.6533 430.083 75.5166C430.151 75.3115 430.22 75.1406 430.288 75.0039V74.9014V48.6514C430.288 47.8311 429.775 47.1133 428.75 46.498C428.135 46.1562 427.417 45.9512 426.597 45.8828H422.803V32.5527H426.494C432.646 32.5527 437.466 35.2529 440.952 40.6533C442.661 43.3193 443.55 45.8486 443.618 48.2412V75.1064C443.618 78.1826 442.285 81.3613 439.619 84.6426C436.133 88.8125 431.758 90.9316 426.494 91H422.803ZM448.745 75.6191L461.46 73.2607C461.46 75.5166 462.622 77.123 464.946 78.0801C465.767 78.3535 466.519 78.5244 467.202 78.5928V91.5127C459.272 91.5127 453.77 88.71 450.693 83.1045C449.395 80.7803 448.745 78.2852 448.745 75.6191ZM449.36 48.5488C449.36 42.1914 452.334 37.4746 458.281 34.3984C461.221 32.8262 464.126 32.04 466.997 32.04V44.7549C463.647 44.8232 461.973 46.0879 461.973 48.5488C461.973 51.1465 465.117 53.4365 471.406 55.4189C473.73 56.1709 476.465 56.8887 479.609 57.5723C484.326 58.4609 487.676 61.0928 489.658 65.4678C490.684 67.7236 491.196 70.2188 491.196 72.9531C491.196 80.0625 488.394 85.292 482.788 88.6416C479.575 90.5557 475.918 91.5127 471.816 91.5127V78.5928C474.209 78.5928 475.986 77.8066 477.148 76.2344C477.695 75.4824 477.969 74.6621 477.969 73.7734C477.969 71.6543 475.371 69.8086 470.176 68.2363C469.355 68.0312 468.091 67.6895 466.382 67.2109C462.759 66.2539 460.264 65.4678 458.896 64.8525C453.906 62.3232 450.898 58.5977 449.873 53.6758C449.531 52.0352 449.36 50.3262 449.36 48.5488ZM471.611 44.7549L471.714 32.04C477.866 32.04 482.822 34.2959 486.582 38.8076C488.975 41.7471 490.171 44.8574 490.171 48.1387L477.559 50.292C477.559 47.2158 475.918 45.4043 472.637 44.8574C472.227 44.7891 471.885 44.7549 471.611 44.7549Z" fill="white"/>
<path d="M103.939 1.75L103.94 60.3809V60.4404L103.944 60.5C105.682 85.8926 86.2506 108.906 52.9014 121.017C19.551 108.906 0.121037 85.8927 1.8584 60.5L1.8623 60.4404V1.75H103.939Z" fill="black" stroke="white" stroke-width="3.5"/>
<path d="M52.0742 54.3797C52.2634 54.0422 52.7366 54.0422 52.9258 54.3797L69.106 83.2405C69.2953 83.5781 69.0587 84 68.6802 84H36.3198C35.9413 84 35.7047 83.5781 35.894 83.2405L52.0742 54.3797Z" fill="white"/>
<path d="M52.9258 53.6203C52.7366 53.9578 52.2634 53.9578 52.0742 53.6203L35.894 24.7595C35.7047 24.4219 35.9413 24 36.3198 24H68.6802C69.0587 24 69.2953 24.4219 69.106 24.7595L52.9258 53.6203Z" fill="white"/>
<path d="M53.2375 54.8182C52.9097 54.6234 52.9097 54.1361 53.2375 53.9413L81.2625 37.2785C81.5903 37.0836 82 37.3272 82 37.717V71.0425C82 71.4323 81.5903 71.6759 81.2625 71.481L53.2375 54.8182Z" fill="white"/>
<path d="M51.7625 53.9413C52.0903 54.1361 52.0903 54.6234 51.7625 54.8182L23.7375 71.481C23.4097 71.6759 23 71.4323 23 71.0425V37.717C23 37.3272 23.4097 37.0836 23.7375 37.2785L51.7625 53.9413Z" fill="white"/>
<path d="M46.3542 54.3797C46.3542 50.8843 49.1057 48.0506 52.5 48.0506C55.8942 48.0506 58.6458 50.8843 58.6458 54.3797C58.6458 57.8752 55.8942 60.7089 52.5 60.7089C49.1057 60.7089 46.3542 57.8752 46.3542 54.3797Z" fill="black"/>
</svg>
